<?xml version="1.0" encoding="UTF-8" standalone="no"?>
<!-- Created with Inkscape (http://www.inkscape.org/) -->

<svg
   xmlns:dc="http://purl.org/dc/elements/1.1/"
   xmlns:cc="http://creativecommons.org/ns#"
   xmlns:rdf="http://www.w3.org/1999/02/22-rdf-syntax-ns#"
   xmlns:svg="http://www.w3.org/2000/svg"
   xmlns="http://www.w3.org/2000/svg"
   xmlns:sodipodi="http://sodipodi.sourceforge.net/DTD/sodipodi-0.dtd"
   xmlns:inkscape="http://www.inkscape.org/namespaces/inkscape"
   width="50mm"
   height="50mm"
   viewBox="0 0 177.16535 177.16535"
   id="svg2"
   version="1.1"
   inkscape:version="0.91 r13725"
   sodipodi:docname="c3.svg"
   inkscape:export-filename="C:\Users\Administrator\Google Drive\Projekte\GFX\distrochooser\c3\c3_600dpi.png"
   inkscape:export-xdpi="600"
   inkscape:export-ydpi="600">
  <defs
     id="defs4" />
  <sodipodi:namedview
     id="base"
     pagecolor="#ffffff"
     bordercolor="#666666"
     borderopacity="1.0"
     inkscape:pageopacity="0.0"
     inkscape:pageshadow="2"
     inkscape:zoom="2.0000001"
     inkscape:cx="69.673363"
     inkscape:cy="89.228255"
     inkscape:document-units="px"
     inkscape:current-layer="layer1"
     showgrid="false"
     showguides="true"
     inkscape:window-width="1920"
     inkscape:window-height="1017"
     inkscape:window-x="-8"
     inkscape:window-y="-8"
     inkscape:window-maximized="1"
     inkscape:object-nodes="true"
     showborder="true"
     fit-margin-top="0"
     fit-margin-left="0"
     fit-margin-right="0"
     fit-margin-bottom="0"
     inkscape:guide-bbox="true"
     inkscape:snap-center="true"
     inkscape:snap-object-midpoints="true" />
  <metadata
     id="metadata7">
    <rdf:RDF>
      <cc:Work
         rdf:about="">
        <dc:format>image/svg+xml</dc:format>
        <dc:type
           rdf:resource="http://purl.org/dc/dcmitype/StillImage" />
        <dc:title></dc:title>
      </cc:Work>
    </rdf:RDF>
  </metadata>
  <g
     inkscape:label="Ebene 1"
     inkscape:groupmode="layer"
     id="layer1"
     transform="translate(79.292684,-377.77884)">
    <g
       id="g4170"
       transform="matrix(0.28588586,0,0,0.28588586,-26.606013,302.23705)">
      <circle
         r="309.8533"
         cy="574.09088"
         cx="125.56062"
         id="path4162"
         style="fill:#ffffff;fill-opacity:1;stroke:none;stroke-width:1.06267333;stroke-linecap:round;stroke-linejoin:round;stroke-miterlimit:80;stroke-dasharray:none;stroke-opacity:1" />
      <g
         id="g4162">
        <circle
           style="opacity:1;fill:#010000;fill-opacity:1;stroke:none;stroke-width:2;stroke-linejoin:miter;stroke-miterlimit:10;stroke-dasharray:none;stroke-opacity:1"
           id="path4147"
           cx="125.56061"
           cy="574.09088"
           r="211.77847"
           inkscape:export-filename="C:\Users\grind\Google Drive\Projekte\GFX\distrochooser\path4258.png"
           inkscape:export-xdpi="208"
           inkscape:export-ydpi="208" />
        <path
           style="opacity:1;fill:#ffffff;fill-opacity:1;stroke:none;stroke-width:2;stroke-linejoin:miter;stroke-miterlimit:10;stroke-dasharray:none;stroke-opacity:1"
           d="m 71.85528,453.19712 a 55.375,55.625 0 0 0 -55.375,55.625 55.375,55.625 0 0 0 10.87891,33.0039 147,119.5 0 0 0 -47.94141,88.1211 147,119.5 0 0 0 147,119.5 147,119.5 0 0 0 147,-119.5 147,119.5 0 0 0 -48.70898,-88.67774 55.375,55.625 0 0 0 10.45898,-32.44726 55.375,55.625 0 0 0 -55.375,-55.625 55.375,55.625 0 0 0 -53.98047,43.42969 55.375,55.625 0 0 0 -53.95703,-43.42969 z"
           id="path4151"
           inkscape:connector-curvature="0"
           inkscape:export-filename="C:\Users\grind\Google Drive\Projekte\GFX\distrochooser\path4258.png"
           inkscape:export-xdpi="208"
           inkscape:export-ydpi="208" />
        <path
           style="opacity:1;fill:#000100;fill-opacity:1;stroke:none;stroke-width:2;stroke-linejoin:miter;stroke-miterlimit:10;stroke-dasharray:none;stroke-opacity:1"
           d="m 69.53301,489.28306 a 17.5,16.5 0 0 0 -17.5,16.5 17.5,16.5 0 0 0 17.5,16.5 17.5,16.5 0 0 0 17.5,-16.5 17.5,16.5 0 0 0 -17.5,-16.5 z m 113.66797,0 a 17.5,16.5 0 0 0 -17.5,16.5 17.5,16.5 0 0 0 17.5,16.5 17.5,16.5 0 0 0 17.5,-16.5 17.5,16.5 0 0 0 -17.5,-16.5 z"
           id="path4158"
           inkscape:connector-curvature="0"
           inkscape:export-filename="C:\Users\grind\Google Drive\Projekte\GFX\distrochooser\path4258.png"
           inkscape:export-xdpi="208"
           inkscape:export-ydpi="208" />
        <path
           style="opacity:1;fill:#e4ae4c;fill-opacity:1;stroke:none;stroke-width:2;stroke-linejoin:miter;stroke-miterlimit:10;stroke-dasharray:none;stroke-opacity:1"
           d="m 126.89434,521.71665 c -20.75855,0.0543 -40.98305,5.52576 -57.87109,15.65625 l -10.05768,-3.90036 -12.63959,3.71286 14.20313,5.79687 c 24.43578,9.18227 43.29627,13.11651 65.83984,44.25586 22.76972,-31.45173 41.78055,-35.14487 66.57617,-44.52929 l 14.20313,-5.79688 -13.70025,-3.71285 -9.01264,3.90621 c -16.83384,-9.9809 -36.92984,-15.35534 -57.54102,-15.38867 z"
           id="path4163"
           inkscape:connector-curvature="0"
           sodipodi:nodetypes="ccccccccccc"
           inkscape:export-filename="C:\Users\grind\Google Drive\Projekte\GFX\distrochooser\path4258.png"
           inkscape:export-xdpi="208"
           inkscape:export-ydpi="208" />
      </g>
      <text
         sodipodi:linespacing="125%"
         id="text4152"
         y="912.30603"
         x="388.22424"
         style="font-style:normal;font-weight:normal;font-size:40px;line-height:125%;font-family:sans-serif;letter-spacing:0px;word-spacing:0px;fill:#000000;fill-opacity:1;stroke:none;stroke-width:1px;stroke-linecap:butt;stroke-linejoin:miter;stroke-opacity:1"
         xml:space="preserve"><tspan
           y="912.30603"
           x="388.22424"
           id="tspan4154"
           sodipodi:role="line" /></text>
      <flowRoot
         style="font-style:normal;font-weight:normal;font-size:40px;line-height:125%;font-family:sans-serif;letter-spacing:0px;word-spacing:0px;fill:#000000;fill-opacity:1;stroke:none;stroke-width:1px;stroke-linecap:butt;stroke-linejoin:miter;stroke-opacity:1"
         id="flowRoot4155"
         xml:space="preserve"><flowRegion
           id="flowRegion4157"><rect
             y="914.99359"
             x="1288"
             height="512"
             width="1236"
             id="rect4159" /></flowRegion><flowPara
           id="flowPara4161" /></flowRoot>      <g
         id="g4173">
        <path
           id="path4228"
           style="font-style:normal;font-variant:normal;font-weight:normal;font-stretch:normal;font-size:72.51635742px;line-height:125%;font-family:'Noto Sans';-inkscape-font-specification:'Noto Sans, Normal';text-align:start;letter-spacing:0px;word-spacing:0px;writing-mode:lr-tb;text-anchor:start;fill:#000000;fill-opacity:1;stroke:none;stroke-width:1px;stroke-linecap:butt;stroke-linejoin:miter;stroke-opacity:1"
           d="m -103.94334,742.6217 q -4.56388,-6.04878 -2.89713,-12.54043 1.66674,-6.49164 9.326653,-12.27114 7.603393,-5.73683 14.387994,-5.62183 6.805934,0.14327 11.391143,6.22033 4.713166,6.24665 2.672033,13.06513 l 0.277246,0.36745 q 0.501323,-0.51133 2.090612,-1.93224 1.617559,-1.44225 2.211131,-1.89011 l 12.380236,-9.34102 3.838783,5.08776 -43.980942,33.1841 -3.092348,-4.09848 3.579202,-3.89817 -0.170658,-0.22609 q -7.172874,0.31101 -12.013995,-6.10523 z m 4.830009,-2.35796 q 3.49756,4.63552 7.612668,4.85737 4.164697,0.22878 9.930838,-4.12184 l 0.932762,-0.70377 q 6.472772,-4.88378 7.57237,-9.12889 1.149186,-4.23817 -2.348364,-8.87369 -2.964395,-3.92889 -7.72266,-3.70981 -4.730016,0.19775 -10.524421,4.56969 -5.766141,4.35062 -7.134512,8.7098 -1.34705,4.38746 1.681319,8.40114 z"
           inkscape:connector-curvature="0"
           inkscape:export-filename="C:\Users\grind\Google Drive\Projekte\GFX\distrochooser\path4258.png"
           inkscape:export-xdpi="208"
           inkscape:export-ydpi="208" />
        <path
           id="path4230"
           style="font-style:normal;font-variant:normal;font-weight:normal;font-stretch:normal;font-size:72.51635742px;line-height:125%;font-family:'Noto Sans';-inkscape-font-specification:'Noto Sans, Normal';text-align:start;letter-spacing:0px;word-spacing:0px;writing-mode:lr-tb;text-anchor:start;fill:#000000;fill-opacity:1;stroke:none;stroke-width:1px;stroke-linecap:butt;stroke-linejoin:miter;stroke-opacity:1"
           d="m -79.341302,770.57297 -4.377187,-4.63269 28.259443,-26.70083 4.377179,4.6327 -28.259435,26.70082 z m 31.185751,-38.91619 q 1.544237,-1.45906 2.968672,-1.34353 1.44875,0.14128 2.543049,1.29945 1.021337,1.08097 1.080279,2.5354 0.08327,1.48017 -1.46097,2.93923 -1.518487,1.43474 -3.017293,1.29204 -1.474492,-0.11695 -2.495837,-1.19791 -1.094299,-1.15818 -1.127501,-2.63693 -0.0089,-1.453 1.509601,-2.88775 z"
           inkscape:connector-curvature="0"
           inkscape:export-filename="C:\Users\grind\Google Drive\Projekte\GFX\distrochooser\path4258.png"
           inkscape:export-xdpi="208"
           inkscape:export-ydpi="208" />
        <path
           id="path4232"
           style="font-style:normal;font-variant:normal;font-weight:normal;font-stretch:normal;font-size:72.51635742px;line-height:125%;font-family:'Noto Sans';-inkscape-font-specification:'Noto Sans, Normal';text-align:start;letter-spacing:0px;word-spacing:0px;writing-mode:lr-tb;text-anchor:start;fill:#000000;fill-opacity:1;stroke:none;stroke-width:1px;stroke-linecap:butt;stroke-linejoin:miter;stroke-opacity:1"
           d="m -44.613305,788.01583 q -3.594083,4.1008 -8.640119,3.68033 -5.022697,-0.4471 -10.561436,-5.30145 -5.778405,-5.06439 -7.57652,-9.88905 l 3.827464,-4.36709 q 2.766013,6.56753 7.239611,10.48835 3.621486,3.174 6.299335,3.44932 2.677857,0.27531 4.40488,-1.6952 1.516988,-1.73086 0.969496,-4.32944 -0.520865,-2.57524 -3.21479,-7.66711 -2.727137,-5.21514 -3.424532,-7.80385 -0.674057,-2.61533 -0.235985,-4.72679 0.46469,-2.08812 2.238398,-4.1119 3.150659,-3.59485 7.900185,-3.10468 4.749527,0.49018 9.862206,4.97112 4.979546,4.36424 7.592971,10.13889 l -4.961708,2.38425 q -2.813292,-5.76148 -6.381524,-8.8888 -2.982396,-2.61388 -5.367033,-3.00887 -2.361291,-0.42162 -3.808265,1.22936 -1.400288,1.59771 -1.002389,3.82976 0.421238,2.20543 3.66059,8.34032 2.457858,4.5554 3.161839,7.24404 0.730606,2.71197 0.272485,4.90003 -0.458113,2.18806 -2.255159,4.23846 z"
           inkscape:connector-curvature="0"
           inkscape:export-filename="C:\Users\grind\Google Drive\Projekte\GFX\distrochooser\path4258.png"
           inkscape:export-xdpi="208"
           inkscape:export-ydpi="208" />
        <path
           id="path4234"
           style="font-style:normal;font-variant:normal;font-weight:normal;font-stretch:normal;font-size:72.51635742px;line-height:125%;font-family:'Noto Sans';-inkscape-font-specification:'Noto Sans, Normal';text-align:start;letter-spacing:0px;word-spacing:0px;writing-mode:lr-tb;text-anchor:start;fill:#000000;fill-opacity:1;stroke:none;stroke-width:1px;stroke-linecap:butt;stroke-linejoin:miter;stroke-opacity:1"
           d="m -30.83638,805.3751 q 1.014202,0.71221 2.518568,1.46577 1.504375,0.75355 2.382967,0.98113 l -2.80815,3.99885 q -0.948269,-0.18998 -2.687551,-0.97869 -1.730648,-0.7394 -3.295414,-1.83824 -9.33064,-6.55235 -2.432353,-16.37561 l 13.002956,-18.51639 -4.491461,-3.15408 1.750013,-2.49204 6.014531,1.10843 6.848001,-5.31553 3.100557,2.17733 -5.127933,7.30225 9.1857611,6.4506 -2.8488514,4.0568 -9.1857527,-6.45061 -12.901219,18.37151 q -1.933144,2.75283 -1.666971,5.14637 0.295157,2.41388 2.642269,4.06217 z"
           inkscape:connector-curvature="0"
           inkscape:export-filename="C:\Users\grind\Google Drive\Projekte\GFX\distrochooser\path4258.png"
           inkscape:export-xdpi="208"
           inkscape:export-ydpi="208" />
        <path
           id="path4236"
           style="font-style:normal;font-variant:normal;font-weight:normal;font-stretch:normal;font-size:72.51635742px;line-height:125%;font-family:'Noto Sans';-inkscape-font-specification:'Noto Sans, Normal';text-align:start;letter-spacing:0px;word-spacing:0px;writing-mode:lr-tb;text-anchor:start;fill:#000000;fill-opacity:1;stroke:none;stroke-width:1px;stroke-linecap:butt;stroke-linejoin:miter;stroke-opacity:1"
           d="m 12.952377,790.67445 q 2.250076,1.27217 3.767036,2.61795 l -3.570982,4.73322 q -1.636218,-1.49457 -3.4239483,-2.50533 -2.6816,-1.51615 -5.8298109,-1.34367 -3.11739732,0.18991 -5.8932491,2.07792 -2.7584346,1.8572 -4.5534136,5.03196 l -10.2121981,18.06225 -5.548131,-3.13686 19.1348078,-33.84359 4.561796,2.57919 -2.8863569,6.54395 0.2465838,0.13942 q 3.8413828,-2.26181 7.4680668,-2.48917 3.626684,-0.22737 6.7397995,1.53276 z"
           inkscape:connector-curvature="0"
           inkscape:export-filename="C:\Users\grind\Google Drive\Projekte\GFX\distrochooser\path4258.png"
           inkscape:export-xdpi="208"
           inkscape:export-ydpi="208" />
        <path
           id="path4238"
           style="font-style:normal;font-variant:normal;font-weight:normal;font-stretch:normal;font-size:72.51635742px;line-height:125%;font-family:'Noto Sans';-inkscape-font-specification:'Noto Sans, Normal';text-align:start;letter-spacing:0px;word-spacing:0px;writing-mode:lr-tb;text-anchor:start;fill:#000000;fill-opacity:1;stroke:none;stroke-width:1px;stroke-linecap:butt;stroke-linejoin:miter;stroke-opacity:1"
           d="m 42.037536,825.03036 q -3.589812,8.82247 -10.065346,11.95994 -6.475535,3.13747 -14.34689,-0.0653 -4.886798,-1.98841 -7.737679,-5.7861 -2.8375422,-3.83049 -3.1361223,-8.92153 -0.2985723,-5.09105 1.996773,-10.73219 3.5764643,-8.78967 9.9597163,-11.88823 6.396591,-3.13136 14.333543,0.0981 7.608972,3.09605 10.027615,9.92896 2.464786,6.81346 -1.03161,15.40636 z M 14.848572,813.96732 q -2.762424,6.78904 -1.547109,11.4121 1.261465,4.6036 6.476233,6.72547 5.149182,2.09517 9.266478,-0.31985 4.130637,-2.44782 6.893062,-9.23686 2.762425,-6.78904 1.428132,-11.3076 -1.288153,-4.53801 -6.502921,-6.65987 -10.462347,-4.25706 -16.013875,9.38661 z"
           inkscape:connector-curvature="0"
           inkscape:export-filename="C:\Users\grind\Google Drive\Projekte\GFX\distrochooser\path4258.png"
           inkscape:export-xdpi="208"
           inkscape:export-ydpi="208" />
        <path
           id="path4240"
           style="font-style:normal;font-variant:normal;font-weight:normal;font-stretch:normal;font-size:72.51635742px;line-height:125%;font-family:'Noto Sans';-inkscape-font-specification:'Noto Sans, Normal';text-align:start;letter-spacing:0px;word-spacing:0px;writing-mode:lr-tb;text-anchor:start;fill:#000000;fill-opacity:1;stroke:none;stroke-width:1px;stroke-linecap:butt;stroke-linejoin:miter;stroke-opacity:1"
           d="m 59.408608,850.36694 q -8.132516,-2.06984 -11.395657,-8.19826 -3.254399,-6.16273 -0.878878,-15.49625 2.410455,-9.47078 8.275567,-13.42206 5.908163,-3.97687 14.383819,-1.81968 2.745152,0.69868 5.273205,1.96324 2.571102,1.23898 4.094067,2.57656 l -3.197326,4.66682 q -4.315557,-2.99831 -7.678365,-3.8542 -5.696196,-1.44976 -9.32405,1.4633 -3.61913,2.87875 -5.426975,9.98183 -1.73797,6.82857 0.04712,11.15584 1.793817,4.29296 7.112548,5.64666 4.975591,1.26637 10.33855,0.29294 l -1.397361,5.4903 q -4.427122,1.02893 -10.226259,-0.44704 z"
           inkscape:connector-curvature="0"
           inkscape:export-filename="C:\Users\grind\Google Drive\Projekte\GFX\distrochooser\path4258.png"
           inkscape:export-xdpi="208"
           inkscape:export-ydpi="208" />
        <path
           id="path4242"
           style="font-style:normal;font-variant:normal;font-weight:normal;font-stretch:normal;font-size:72.51635742px;line-height:125%;font-family:'Noto Sans';-inkscape-font-specification:'Noto Sans, Normal';text-align:start;letter-spacing:0px;word-spacing:0px;writing-mode:lr-tb;text-anchor:start;fill:#000000;fill-opacity:1;stroke:none;stroke-width:1px;stroke-linecap:butt;stroke-linejoin:miter;stroke-opacity:1"
           d="m 104.7277,856.86561 2.73957,-24.70525 q 0.52293,-4.71581 -1.33496,-7.23749 -1.8188,-2.55296 -6.288269,-3.04858 -5.877175,-0.65172 -8.985141,2.3168 -3.072766,2.97243 -3.907906,10.50366 l -2.212718,19.95424 -6.334678,-0.70246 6.072298,-54.75978 6.334678,0.70245 -1.779545,16.04786 q -0.351219,3.16733 -0.952909,5.38064 l 0.422311,0.0468 q 2.03664,-2.62419 5.379597,-3.85663 3.342948,-1.23245 7.319722,-0.79146 7.03853,0.7805 10.21835,4.55315 3.18373,3.73745 2.3642,11.12791 l -2.7903,25.16276 -6.2643,-0.69465 z"
           inkscape:connector-curvature="0"
           inkscape:export-filename="C:\Users\grind\Google Drive\Projekte\GFX\distrochooser\path4258.png"
           inkscape:export-xdpi="208"
           inkscape:export-ydpi="208" />
        <path
           id="path4244"
           style="font-style:normal;font-variant:normal;font-weight:normal;font-stretch:normal;font-size:72.51635742px;line-height:125%;font-family:'Noto Sans';-inkscape-font-specification:'Noto Sans, Normal';text-align:start;letter-spacing:0px;word-spacing:0px;writing-mode:lr-tb;text-anchor:start;fill:#000000;fill-opacity:1;stroke:none;stroke-width:1px;stroke-linecap:butt;stroke-linejoin:miter;stroke-opacity:1"
           d="m 156.02366,836.91064 q 0.4255,9.51535 -4.14639,15.07179 -4.57187,5.55646 -13.0614,5.93608 -5.27058,0.23569 -9.44762,-2.02314 -4.17863,-2.29421 -6.57738,-6.79464 -2.39877,-4.50042 -2.67083,-10.58458 -0.42392,-9.47997 4.08038,-14.96251 4.50272,-5.51792 13.06299,-5.9007 8.20654,-0.36698 13.25929,4.82997 5.08653,5.16 5.50096,14.42773 z m -29.32424,1.3113 q 0.32743,7.32222 3.36348,11.01438 3.06984,3.65521 8.69415,3.4037 5.55357,-0.24834 8.2849,-4.16295 2.72976,-3.95 2.40233,-11.27222 -0.32743,-7.32221 -3.4279,-10.86972 -3.06667,-3.58446 -8.69098,-3.33296 -11.284,0.50459 -10.62598,15.21977 z"
           inkscape:connector-curvature="0"
           inkscape:export-filename="C:\Users\grind\Google Drive\Projekte\GFX\distrochooser\path4258.png"
           inkscape:export-xdpi="208"
           inkscape:export-ydpi="208" />
        <path
           id="path4246"
           style="font-style:normal;font-variant:normal;font-weight:normal;font-stretch:normal;font-size:72.51635742px;line-height:125%;font-family:'Noto Sans';-inkscape-font-specification:'Noto Sans, Normal';text-align:start;letter-spacing:0px;word-spacing:0px;writing-mode:lr-tb;text-anchor:start;fill:#000000;fill-opacity:1;stroke:none;stroke-width:1px;stroke-linecap:butt;stroke-linejoin:miter;stroke-opacity:1"
           d="m 196.23826,829.1958 q 1.88344,9.33678 -1.77977,15.53009 -3.66321,6.19332 -11.99343,7.87371 -5.17167,1.04325 -9.64634,-0.5465 -4.48168,-1.62446 -7.54386,-5.70257 -3.06219,-4.07809 -4.26646,-10.04808 -1.87645,-9.30207 1.73136,-15.41197 3.60079,-6.14459 12.00041,-7.83899 8.05254,-1.62438 13.84425,2.73391 5.81941,4.31658 7.65384,13.4104 z m -28.77394,5.80435 q 1.44933,7.18481 5.01695,10.36627 3.59534,3.13975 9.1141,2.0265 5.44935,-1.09926 7.54633,-5.38728 2.08999,-4.32273 0.64065,-11.50754 -1.44935,-7.18481 -5.05838,-10.21343 -3.58133,-3.07034 -9.10009,-1.95708 -11.07225,2.23352 -8.15956,16.67256 z"
           inkscape:connector-curvature="0"
           inkscape:export-filename="C:\Users\grind\Google Drive\Projekte\GFX\distrochooser\path4258.png"
           inkscape:export-xdpi="208"
           inkscape:export-ydpi="208" />
        <path
           id="path4248"
           style="font-style:normal;font-variant:normal;font-weight:normal;font-stretch:normal;font-size:72.51635742px;line-height:125%;font-family:'Noto Sans';-inkscape-font-specification:'Noto Sans, Normal';text-align:start;letter-spacing:0px;word-spacing:0px;writing-mode:lr-tb;text-anchor:start;fill:#000000;fill-opacity:1;stroke:none;stroke-width:1px;stroke-linecap:butt;stroke-linejoin:miter;stroke-opacity:1"
           d="m 230.10571,826.66103 q 1.8065,5.14496 -1.03841,9.33372 -2.85664,4.15536 -9.80567,6.59531 -7.24971,2.54553 -12.33545,1.74184 l -1.92381,-5.47903 q 7.07929,0.81673 12.69196,-1.154 4.5436,-1.59536 6.09878,-3.79267 1.5552,-2.19728 0.68714,-4.66953 -0.76249,-2.17157 -3.29489,-2.97113 -2.49899,-0.81129 -8.25751,-0.96596 -5.88219,-0.18629 -8.47963,-0.85043 -2.60917,-0.69756 -4.23315,-2.1163 -1.59057,-1.43048 -2.4821,-3.96955 -1.58362,-4.51018 1.17636,-8.40644 2.75998,-3.89624 9.17447,-6.1485 6.24745,-2.19362 12.56114,-1.63346 l -0.36047,5.49302 q -6.4004,-0.3796 -10.87718,1.19229 -3.74179,1.31382 -5.2572,3.19691 -1.52714,1.84969 -0.79984,3.92103 0.70384,2.00452 2.84349,2.75435 2.12794,0.71641 9.06289,0.90833 5.17525,0.0968 7.86297,0.80426 2.72113,0.69578 4.40198,2.16962 1.68085,1.47383 2.58414,4.04628 z"
           inkscape:connector-curvature="0"
           inkscape:export-filename="C:\Users\grind\Google Drive\Projekte\GFX\distrochooser\path4258.png"
           inkscape:export-xdpi="208"
           inkscape:export-ydpi="208" />
        <path
           id="path4250"
           style="font-style:normal;font-variant:normal;font-weight:normal;font-stretch:normal;font-size:72.51635742px;line-height:125%;font-family:'Noto Sans';-inkscape-font-specification:'Noto Sans, Normal';text-align:start;letter-spacing:0px;word-spacing:0px;writing-mode:lr-tb;text-anchor:start;fill:#000000;fill-opacity:1;stroke:none;stroke-width:1px;stroke-linecap:butt;stroke-linejoin:miter;stroke-opacity:1"
           d="m 257.38281,826.22369 q -7.79622,3.96347 -14.63762,1.52303 -6.82588,-2.48805 -11.03004,-10.75773 -4.23625,-8.33282 -2.60465,-15.35883 1.61555,-7.05759 8.65424,-10.63593 6.53369,-3.32161 12.56624,-1.06579 6.01651,2.22426 9.67509,9.42078 l 1.74906,3.44044 -23.73588,12.06692 q 3.1585,5.82216 7.55573,7.43966 4.39723,1.6175 9.60524,-1.03015 2.7776,-1.41209 5.03046,-3.15318 2.23679,-1.77269 4.86045,-4.89397 l 2.53533,4.98706 q -2.24648,2.69121 -4.51483,4.47994 -2.26835,1.78873 -5.70879,3.5378 z m -17.32236,-30.5575 q -4.07172,2.06998 -5.10714,5.89325 -1.03543,3.82326 0.89756,8.71934 l 17.64409,-8.96995 q -2.53428,-4.82872 -5.99588,-6.2466 -3.46161,-1.4179 -7.43863,0.60396 z"
           inkscape:connector-curvature="0"
           inkscape:export-filename="C:\Users\grind\Google Drive\Projekte\GFX\distrochooser\path4258.png"
           inkscape:export-xdpi="208"
           inkscape:export-ydpi="208" />
        <path
           id="path4252"
           style="font-style:normal;font-variant:normal;font-weight:normal;font-stretch:normal;font-size:72.51635742px;line-height:125%;font-family:'Noto Sans';-inkscape-font-specification:'Noto Sans, Normal';text-align:start;letter-spacing:0px;word-spacing:0px;writing-mode:lr-tb;text-anchor:start;fill:#000000;fill-opacity:1;stroke:none;stroke-width:1px;stroke-linecap:butt;stroke-linejoin:miter;stroke-opacity:1"
           d="m 271.19781,770.60889 q 2.14336,-1.44473 4.02504,-2.20074 l 2.63942,5.3093 q -2.06809,0.79621 -3.77102,1.94411 -2.55439,1.72184 -3.80648,4.61551 -1.22272,2.87388 -0.77361,6.20077 0.42931,3.29755 2.46781,6.32171 l 11.59769,17.20545 -5.28495,3.56244 -21.73082,-32.2382 4.3454,-2.92911 4.56526,5.50571 0.23477,-0.15852 q -0.30751,-4.44719 1.1092,-7.79344 1.41672,-3.34626 4.38218,-5.34518 z"
           inkscape:connector-curvature="0"
           inkscape:export-filename="C:\Users\grind\Google Drive\Projekte\GFX\distrochooser\path4258.png"
           inkscape:export-xdpi="208"
           inkscape:export-ydpi="208" />
      </g>
      <g
         id="g4168">
        <path
           id="path4254"
           style="font-style:normal;font-variant:normal;font-weight:normal;font-stretch:normal;font-size:72.51635742px;line-height:125%;font-family:'Noto Sans';-inkscape-font-specification:'Noto Sans, Normal';text-align:start;letter-spacing:0px;word-spacing:0px;writing-mode:lr-tb;text-anchor:start;opacity:0.24800002;fill:#000000;fill-opacity:1;stroke:none;stroke-width:1px;stroke-linecap:butt;stroke-linejoin:miter;stroke-opacity:1"
           d="m 299.54342,793.71175 q -1.46734,-1.81887 -1.36361,-3.49485 0.10906,-1.72578 1.76256,-3.05973 1.68107,-1.35618 3.41843,-1.11998 1.71513,0.20864 3.18247,2.0275 1.44511,1.7913 1.35296,3.59442 -0.11438,1.77558 -1.79545,3.13176 -1.62595,1.31171 -3.35799,1.02573 -1.73202,-0.28599 -3.19937,-2.10485 z"
           inkscape:connector-curvature="0"
           inkscape:export-filename="C:\Users\grind\Google Drive\Projekte\GFX\distrochooser\path4258.png"
           inkscape:export-xdpi="208"
           inkscape:export-ydpi="208" />
        <path
           id="path4256"
           style="font-style:normal;font-variant:normal;font-weight:normal;font-stretch:normal;font-size:72.51635742px;line-height:125%;font-family:'Noto Sans';-inkscape-font-specification:'Noto Sans, Normal';text-align:start;letter-spacing:0px;word-spacing:0px;writing-mode:lr-tb;text-anchor:start;opacity:0.24800002;fill:#000000;fill-opacity:1;stroke:none;stroke-width:1px;stroke-linecap:butt;stroke-linejoin:miter;stroke-opacity:1"
           d="m 328.08163,774.68055 q -5.32662,5.38925 -11.99088,4.67706 -6.66425,-0.71218 -13.48896,-7.45757 -6.77434,-6.69561 -7.63993,-13.42575 -0.8407,-6.75533 4.51081,-12.16976 5.50086,-5.56554 12.54257,-4.53007 l 0.32358,-0.32739 q -0.57835,-0.42225 -2.21381,-1.78978 -1.66063,-1.39243 -2.18949,-1.91512 l -11.03034,-10.90215 4.48034,-4.53301 39.18539,38.72998 -3.60915,3.6516 -4.37401,-2.97899 -0.19912,0.20148 q 1.34319,7.05284 -4.307,12.76948 z m -3.03051,-4.43904 q 4.08208,-4.13008 3.70756,-8.23411 -0.3748,-4.15411 -5.51222,-9.23182 l -0.83105,-0.82139 q -5.76701,-5.69998 -10.12639,-6.17526 -4.35966,-0.52535 -8.44175,3.60473 -3.45981,3.5005 -2.55615,8.17731 0.87848,4.65191 6.04109,9.75452 5.13741,5.07771 9.64847,5.80247 4.53595,0.6996 8.07044,-2.87645 z"
           inkscape:connector-curvature="0"
           inkscape:export-filename="C:\Users\grind\Google Drive\Projekte\GFX\distrochooser\path4258.png"
           inkscape:export-xdpi="208"
           inkscape:export-ydpi="208" />
        <path
           id="path4258"
           style="font-style:normal;font-variant:normal;font-weight:normal;font-stretch:normal;font-size:72.51635742px;line-height:125%;font-family:'Noto Sans';-inkscape-font-specification:'Noto Sans, Normal';text-align:start;letter-spacing:0px;word-spacing:0px;writing-mode:lr-tb;text-anchor:start;opacity:0.24800002;fill:#000000;fill-opacity:1;stroke:none;stroke-width:1px;stroke-linecap:butt;stroke-linejoin:miter;stroke-opacity:1"
           d="m 358.79489,738.53838 q -5.1435,7.07351 -12.34671,8.00865 -7.211,0.8857 -14.71409,-4.57016 -7.56035,-5.49751 -9.29991,-12.49758 -1.76819,-7.02089 2.87553,-13.4071 4.31054,-5.92801 10.70934,-6.66005 6.37015,-0.75286 12.89955,3.99499 l 3.12151,2.26979 -15.65956,21.53557 q 5.45937,3.75088 10.11139,3.1934 4.652,-0.55748 8.08793,-5.28273 1.8325,-2.52012 3.04802,-5.09485 1.18689,-2.59557 2.10552,-6.56824 l 4.52476,3.29017 q -0.7781,3.41817 -1.98581,6.04237 -1.20771,2.6242 -3.47751,5.74571 z m -29.31707,-19.34777 q -2.68627,3.69426 -1.87113,7.57048 0.81514,3.87621 4.76201,7.35905 l 11.64055,-16.00848 q -4.45186,-3.14961 -8.17973,-2.83951 -3.72786,0.31009 -6.35167,3.91844 z"
           inkscape:connector-curvature="0"
           inkscape:export-filename="C:\Users\grind\Google Drive\Projekte\GFX\distrochooser\path4258.png"
           inkscape:export-xdpi="208"
           inkscape:export-ydpi="208" />
      </g>
    </g>
  </g>
</svg>
