<svg xmlns="http://www.w3.org/2000/svg" xmlns:xlink="http://www.w3.org/1999/xlink" viewBox="0 0 1240.15 432.99"><defs><linearGradient id="a"><stop offset="0" stop-color="#fff"/><stop offset="1" stop-color="#ddd"/></linearGradient><linearGradient id="c" x1="472.97" x2="574.42" y1="487.47" y2="770.32" xlink:href="#a" gradientUnits="userSpaceOnUse" gradientTransform="translate(-414 46)"/><filter id="b" width="1.02" height="1.02" x="-.01" y="-.01" color-interpolation-filters="sRGB"><feGaussianBlur stdDeviation="1.48"/></filter></defs><g transform="translate(89.776 -362.312)"><circle cx="125.56" cy="579.97" r="211.78" fill="#010000" opacity=".34" filter="url(#b)"/><circle cx="125.56" cy="574.09" r="211.78" fill="#010000"/><path fill="url(#c)" d="M71.86 453.2a55.38 55.63 0 0 0-55.38 55.62 55.38 55.63 0 0 0 10.88 33 147 119.5 0 0 0-47.94 88.13 147 119.5 0 0 0 147 119.5 147 119.5 0 0 0 147-119.5 147 119.5 0 0 0-48.7-88.68 55.38 55.63 0 0 0 10.45-32.45 55.38 55.63 0 0 0-55.38-55.62 55.38 55.63 0 0 0-54 43.43 55.38 55.63 0 0 0-54-43.43z"/><path fill="#000100" d="M69.53 489.28a17.5 16.5 0 0 0-17.5 16.5 17.5 16.5 0 0 0 17.5 16.5 17.5 16.5 0 0 0 17.5-16.5 17.5 16.5 0 0 0-17.5-16.5zm113.67 0a17.5 16.5 0 0 0-17.5 16.5 17.5 16.5 0 0 0 17.5 16.5 17.5 16.5 0 0 0 17.5-16.5 17.5 16.5 0 0 0-17.5-16.5z"/><path fill="#e4ae4c" d="M126.9 521.72c-20.76.05-41 5.52-57.88 15.65l-10.05-3.9-12.64 3.72 14.2 5.7c24.43 9.2 43.3 13.1 65.84 44.2 22.77-31.5 41.78-35.2 66.58-44.6l14.2-5.8-13.7-3.7-9 3.9c-16.85-10-36.94-15.4-57.56-15.4z"/></g><path fill="gray" d="M465.55 32.2q4.07-.68 9.06-.9 5.2-.46 10.5-.68 5.5-.46 10.4-.46 5-.22 8.9-.22 18.8 0 31.3 5.88 12.7 5.67 20.2 16.3 7.7 10.43 10.9 25.15Q570 92 570 110.1q0 16.6-3.18 31.7-2.95 15-10.65 26.5-7.7 11.4-20.82 18.2-13.15 6.8-33.1 6.8-2.92 0-7.9-.23t-10.4-.67q-5.44-.24-10.4-.7-5-.23-7.7-.7V32.2zm41.67 24q-3.63 0-7.48.23-3.62 0-5.66.46V166q.68.22 2.27.45 1.8 0 3.62.22 2.04 0 3.62.2h2.4q10.2 0 16.7-4.74 6.5-4.77 10.2-12.7 3.8-7.9 5.2-18.1 1.6-10.43 1.6-21.76 0-10.4-1.4-20.14-1.2-9.75-4.8-17-3.4-7.47-10-11.77-6.3-4.56-16.5-4.56zm82.02-24h28.53v158.53h-28.53V32.2zM696.2 149.97q0-7.25-4.3-12.23-4.3-5.2-10.88-9.74-6.34-4.53-14.04-9.3-7.47-4.74-14.04-11.08-6.34-6.34-10.65-14.95-4.3-8.6-4.3-21.06 0-11.5 3.4-19.4Q645 44 651.1 39q6.1-5.2 14.5-7.47 8.37-2.5 17.88-2.5 11.56 0 21.53 2.28t16.6 6.1l-8.8 25.2q-3.8-2.7-11.5-5-7.5-2.2-16.3-2.2t-13.6 3.7q-4.7 3.7-4.7 10.7 0 6.4 4.3 11.4 4.3 4.8 10.7 9.3 6.6 4.6 14 9.5 7.7 4.8 14.1 11.4 6.6 6.35 10.9 15.2 4.3 8.6 4.3 20.6 0 12-3.6 20.8-3.4 8.87-9.94 14.76-6.34 5.66-15.4 8.6-9.1 2.97-20.2 2.97-14.03 0-24.7-2.7-10.4-2.7-16.05-6.1l9.3-25.6q4.5 2.7 12.45 5.4 7.9 2.75 17 2.75 22.6 0 22.6-17.66zm139.38-91.5h-37.6v132.26h-28.53V58.47h-37.6V32.2h103.73v26.27zm12.14-24.67q9.28-2.05 19.93-2.96 10.64-.9 18.34-.9 9.7 0 19 2.03 9.3 1.82 16.3 7.03 7.2 4.98 11.5 13.8 4.5 8.62 4.5 21.98 0 19.25-7.3 31.48-7 12-19.5 16.53l9 7.2 29.2 60.7H916l-27.62-62.5-12.23-3v65.4h-28.5V33.8zm28.53 72H886q10.64 0 16.07-6.34 5.44-6.56 5.44-20.15 0-10.1-4.5-16.5-4.5-6.5-14.2-6.5-3.6 0-7 .3t-5.4.9V106zm76.2 5.67q0-40.32 13.83-61.38Q980.08 29 1008.4 29q14.72 0 25.37 5.9 10.64 5.65 17.44 16.52 6.8 10.65 10 26.05 3.4 15.16 3.4 33.96 0 40.3-14.2 61.37-14 21.06-41.9 21.06-14.9 0-25.6-5.67-10.4-5.9-17.2-16.6-6.8-10.9-9.9-26.1-3.1-15.4-3.1-34.2zm29.9 0q0 12 1.37 22.42 1.36 10.1 4.53 17.6 3.17 7.5 7.92 11.8 5 4.3 12.23 4.3 13.14 0 19.7-13.4 6.57-13.4 6.57-42.8 0-11.6-1.36-21.8-1.3-10.4-4.5-17.9-2.9-7.7-7.9-12-5-4.5-12.4-4.5-26 0-26 56.1zM557.38 394.45q-5.9 4.98-15.86 7.25-9.73 2.26-19.47 2.26-12.23 0-22.88-4.07-10.4-4.4-18.34-14.1-7.93-9.8-12.46-25.6-4.53-15.9-4.53-39 0-24 5-39.9 5.2-15.9 13.35-25.2 8.3-9.5 19-13.4 10.6-3.9 21.5-3.9 11.1 0 19.2 1.8 8.4 1.8 13.6 4.1l-5.7 25.2q-4.3-2.3-10.2-3.4-5.7-1.4-13.6-1.4-15.6 0-24 13.6t-8.4 42.6q0 12.4 1.8 22.8 2 10.2 6.1 17.7 4.3 7.5 10.6 11.6 6.6 4.1 15.6 4.1 7.9 0 13.6-2.06 5.6-2.26 10.2-5.2l5.6 24zm85.38-60.7H599.5v67.04h-28.53V242.2h28.54v65.23h43.3V242.2h28.6v158.6h-28.6v-67.04zm45.34-12.22q0-40.3 13.82-61.38 13.8-21.06 42.12-21.06 14.72 0 25.37 5.8 10.7 5.6 17.5 16.5 6.8 10.6 10 26 3.4 15.1 3.4 33.9 0 40.3-14.2 61.3-14 21-41.9 21-14.9 0-25.6-5.7-10.4-5.9-17.2-16.57-6.8-10.88-9.9-26.06-3.1-15.4-3.1-34.2zm29.9 0q0 12 1.36 22.42 1.36 10.2 4.53 17.66 3.1 7.5 7.9 11.8 5 4.3 12.2 4.3 13.1 0 19.7-13.3 6.5-13.3 6.5-42.8 0-11.5-1.4-21.7-1.4-10.4-4.6-17.9-3-7.7-8-12-5-4.5-12.5-4.5-26.1 0-26.1 56.2zm95.28 0q0-40.3 13.82-61.38 13.8-21.06 42.12-21.06 14.72 0 25.37 5.8 10.6 5.6 17.4 16.5 6.8 10.6 9.9 26 3.4 15.1 3.4 33.9 0 40.3-14.3 61.3-14.1 21-41.9 21-15 0-25.6-5.7-10.4-5.9-17.2-16.57-6.8-10.88-10-26.06-3.2-15.4-3.2-34.2zm29.9 0q0 12 1.36 22.42 1.36 10.2 4.53 17.66 3.17 7.5 7.92 11.8 4.9 4.3 12.2 4.3 13.1 0 19.7-13.3 6.5-13.3 6.5-42.8 0-11.5-1.4-21.7-1.4-10.4-4.6-17.9-3-7.7-7.9-12-5-4.5-12.5-4.5-26.1 0-26.1 56.2zm154.4 38.5q0-7.25-4.3-12.23-4.3-5.2-10.88-9.74-6.34-4.53-14.04-9.3-7.48-4.74-14.04-11.08-6.35-6.34-10.65-14.95-4.3-8.6-4.3-21.06 0-11.55 3.4-19.48 3.62-8.2 9.73-13.2 6.12-5.2 14.5-7.5 8.38-2.5 17.9-2.5 11.54 0 21.5 2.3 9.97 2.2 16.54 6.1l-8.84 25.1q-3.85-2.7-11.55-5-7.47-2.3-16.3-2.3-8.83 0-13.6 3.6-4.75 3.6-4.75 10.6 0 6.3 4.3 11.3 4.3 4.7 10.65 9.3 6.57 4.5 14.04 9.5 7.7 4.7 14 11.3 6.5 6.3 10.8 15.2 4.3 8.6 4.3 20.6 0 12-3.7 20.8-3.4 8.8-10 14.7-6.4 5.6-15.4 8.6-9.1 2.9-20.2 2.9-14.1 0-24.7-2.7-10.4-2.8-16.1-6.2l9.2-25.6q4.53 2.72 12.5 5.43 7.9 2.73 17 2.73 22.6 0 22.6-17.7zm44.02-117.77h79.28v26.27h-50.73v38.96h45.97v26.2h-45.97v40.7h51.63v26.2h-80.17V242.2zm97.32 1.6q9.3-2.05 19.93-2.96 10.65-.9 18.35-.9 9.73 0 19.02 2.04 9.28 1.8 16.3 7.02 7.25 4.98 11.56 13.8 4.52 8.62 4.52 21.98 0 19.25-7.24 31.48-7.02 12-19.48 16.53l9.06 7.25 29.2 60.7h-32.82l-27.63-62.5-12.3-2.96v65.45h-28.6v-157zm28.54 72h9.74q10.64 0 16.08-6.34 5.43-6.56 5.43-20.15 0-10.2-4.5-16.53-4.5-6.57-14.2-6.57-3.6 0-7 .22t-5.4.9v48.4z" style="line-height:125%;-inkscape-font-specification:'PT Sans Narrow, Bold Condensed';text-align:start" font-weight="bold" font-stretch="condensed" font-family="PT Sans Narrow" letter-spacing="0" word-spacing="0"/></svg>